<svg width="23" height="16" viewBox="0 0 23 16" fill="none" xmlns="http://www.w3.org/2000/svg">
<path d="M21.5364 0H1.46364C1.07546 0 0.703174 0.151282 0.428689 0.420565C0.154204 0.689848 0 1.05507 0 1.4359V3.89744C0 4.27826 0.154204 4.64349 0.428689 4.91277C0.703174 5.18205 1.07546 5.33333 1.46364 5.33333H1.67273V14.5641C1.67273 14.9449 1.82693 15.3102 2.10142 15.5794C2.3759 15.8487 2.74818 16 3.13636 16H19.8636C20.2518 16 20.6241 15.8487 20.8986 15.5794C21.1731 15.3102 21.3273 14.9449 21.3273 14.5641V5.33333H21.5364C21.9245 5.33333 22.2968 5.18205 22.5713 4.91277C22.8458 4.64349 23 4.27826 23 3.89744V1.4359C23 1.05507 22.8458 0.689848 22.5713 0.420565C22.2968 0.151282 21.9245 0 21.5364 0ZM20.0727 14.5641C20.0727 14.6185 20.0507 14.6707 20.0115 14.7092C19.9723 14.7476 19.9191 14.7692 19.8636 14.7692H3.13636C3.08091 14.7692 3.02773 14.7476 2.98851 14.7092C2.9493 14.6707 2.92727 14.6185 2.92727 14.5641V5.33333H20.0727V14.5641ZM21.7455 3.89744C21.7455 3.95184 21.7234 4.00401 21.6842 4.04248C21.645 4.08095 21.5918 4.10256 21.5364 4.10256H1.46364C1.40818 4.10256 1.355 4.08095 1.31579 4.04248C1.27657 4.00401 1.25455 3.95184 1.25455 3.89744V1.4359C1.25455 1.38149 1.27657 1.32932 1.31579 1.29085C1.355 1.25238 1.40818 1.23077 1.46364 1.23077H21.5364C21.5918 1.23077 21.645 1.25238 21.6842 1.29085C21.7234 1.32932 21.7455 1.38149 21.7455 1.4359V3.89744ZM8.36364 8.82051C8.36364 8.6573 8.42972 8.50078 8.54736 8.38537C8.665 8.26996 8.82455 8.20513 8.99091 8.20513H14.0091C14.1755 8.20513 14.335 8.26996 14.4526 8.38537C14.5703 8.50078 14.6364 8.6573 14.6364 8.82051C14.6364 8.98372 14.5703 9.14025 14.4526 9.25566C14.335 9.37106 14.1755 9.4359 14.0091 9.4359H8.99091C8.82455 9.4359 8.665 9.37106 8.54736 9.25566C8.42972 9.14025 8.36364 8.98372 8.36364 8.82051Z" fill="white"/>
</svg>
