<svg width="21" height="22" viewBox="0 0 21 22" fill="none" xmlns="http://www.w3.org/2000/svg">
<path d="M14.5413 21.3529C14.5413 21.5246 14.4741 21.6891 14.3544 21.8105C14.2346 21.9318 14.0723 22 13.9029 22H7.09351C6.9242 22 6.76182 21.9318 6.6421 21.8105C6.52238 21.6891 6.45512 21.5246 6.45512 21.3529C6.45512 21.1813 6.52238 21.0167 6.6421 20.8954C6.76182 20.7741 6.9242 20.7059 7.09351 20.7059H13.9029C14.0723 20.7059 14.2346 20.7741 14.3544 20.8954C14.4741 21.0167 14.5413 21.1813 14.5413 21.3529ZM20.2985 17.7941C20.1694 18.0245 19.9821 18.2159 19.7558 18.3486C19.5296 18.4813 19.2725 18.5504 19.0111 18.549H1.98643C1.72459 18.5485 1.46753 18.478 1.24115 18.3446C1.01476 18.2113 0.827056 18.0198 0.696941 17.7895C0.566826 17.5592 0.498902 17.2982 0.500013 17.0328C0.501125 16.7674 0.571233 16.507 0.703272 16.2778C1.30442 15.2275 2.19922 12.2661 2.19922 8.41177C2.19922 6.18083 3.07358 4.04126 4.62994 2.46375C6.18631 0.886237 8.29719 0 10.4982 0C12.6993 0 14.8101 0.886237 16.3665 2.46375C17.9229 4.04126 18.7972 6.18083 18.7972 8.41177C18.7972 12.265 19.6931 15.2275 20.2953 16.2778C20.4288 16.5075 20.4994 16.769 20.5 17.0355C20.5006 17.3021 20.431 17.5639 20.2985 17.7941ZM19.1909 16.9314C18.3855 15.5294 17.5205 12.2596 17.5205 8.41177C17.5205 6.52405 16.7806 4.71365 15.4637 3.37883C14.1468 2.04401 12.3606 1.29412 10.4982 1.29412C8.63581 1.29412 6.84968 2.04401 5.53276 3.37883C4.21583 4.71365 3.47599 6.52405 3.47599 8.41177C3.47599 12.2607 2.60992 15.5294 1.80449 16.9314C1.78581 16.9642 1.77598 17.0014 1.77598 17.0392C1.77598 17.0771 1.78581 17.1143 1.80449 17.1471C1.82201 17.1801 1.84814 17.2076 1.88004 17.2266C1.91193 17.2456 1.94836 17.2554 1.98536 17.2549H19.01C19.047 17.2554 19.0835 17.2456 19.1154 17.2266C19.1472 17.2076 19.1734 17.1801 19.1909 17.1471C19.2096 17.1143 19.2194 17.0771 19.2194 17.0392C19.2194 17.0014 19.2096 16.9642 19.1909 16.9314Z" fill="#181818"/>
</svg>
