<svg width="13" height="15" viewBox="0 0 13 15" fill="none" xmlns="http://www.w3.org/2000/svg">
<path d="M11.5177 1.59804H9.79669V0.911765C9.79669 0.802558 9.75485 0.697824 9.68036 0.620603C9.60588 0.543382 9.50486 0.5 9.39953 0.5C9.29419 0.5 9.19317 0.543382 9.11869 0.620603C9.04421 0.697824 9.00236 0.802558 9.00236 0.911765V1.59804H3.44208V0.911765C3.44208 0.802558 3.40024 0.697824 3.32575 0.620603C3.25127 0.543382 3.15025 0.5 3.04492 0.5C2.93958 0.5 2.83856 0.543382 2.76408 0.620603C2.6896 0.697824 2.64775 0.802558 2.64775 0.911765V1.59804H0.926714C0.680934 1.59804 0.445221 1.69926 0.271428 1.87945C0.0976357 2.05963 0 2.30401 0 2.55882V13.5392C0 13.794 0.0976357 14.0384 0.271428 14.2186C0.445221 14.3988 0.680934 14.5 0.926714 14.5H11.5177C11.7635 14.5 11.9992 14.3988 12.173 14.2186C12.3468 14.0384 12.4444 13.794 12.4444 13.5392V2.55882C12.4444 2.30401 12.3468 2.05963 12.173 1.87945C11.9992 1.69926 11.7635 1.59804 11.5177 1.59804ZM0.926714 2.42157H2.64775V3.10784C2.64775 3.21705 2.6896 3.32178 2.76408 3.399C2.83856 3.47623 2.93958 3.51961 3.04492 3.51961C3.15025 3.51961 3.25127 3.47623 3.32575 3.399C3.40024 3.32178 3.44208 3.21705 3.44208 3.10784V2.42157H9.00236V3.10784C9.00236 3.21705 9.04421 3.32178 9.11869 3.399C9.19317 3.47623 9.29419 3.51961 9.39953 3.51961C9.50486 3.51961 9.60588 3.47623 9.68036 3.399C9.75485 3.32178 9.79669 3.21705 9.79669 3.10784V2.42157H11.5177C11.5528 2.42157 11.5865 2.43603 11.6113 2.46177C11.6362 2.48751 11.6501 2.52242 11.6501 2.55882V4.89216H0.794326V2.55882C0.794326 2.52242 0.808274 2.48751 0.833102 2.46177C0.857929 2.43603 0.891603 2.42157 0.926714 2.42157ZM11.5177 13.6765H0.926714C0.891603 13.6765 0.857929 13.662 0.833102 13.6363C0.808274 13.6105 0.794326 13.5756 0.794326 13.5392V5.71569H11.6501V13.5392C11.6501 13.5756 11.6362 13.6105 11.6113 13.6363C11.5865 13.662 11.5528 13.6765 11.5177 13.6765ZM6.88416 8.32353C6.88416 8.45926 6.84534 8.59195 6.7726 8.7048C6.69987 8.81766 6.59649 8.90562 6.47553 8.95757C6.35458 9.00951 6.22149 9.0231 6.09308 8.99662C5.96468 8.97014 5.84674 8.90478 5.75416 8.8088C5.66159 8.71282 5.59854 8.59054 5.573 8.45742C5.54746 8.32429 5.56057 8.1863 5.61067 8.0609C5.66077 7.9355 5.74561 7.82832 5.85447 7.75291C5.96332 7.6775 6.0913 7.63726 6.22222 7.63726C6.39778 7.63726 6.56615 7.70956 6.69028 7.83826C6.81442 7.96696 6.88416 8.14152 6.88416 8.32353ZM9.79669 8.32353C9.79669 8.45926 9.75787 8.59195 9.68513 8.7048C9.6124 8.81766 9.50902 8.90562 9.38806 8.95757C9.26711 9.00951 9.13402 9.0231 9.00562 8.99662C8.87721 8.97014 8.75926 8.90478 8.66669 8.8088C8.57412 8.71282 8.51107 8.59054 8.48553 8.45742C8.45999 8.32429 8.4731 8.1863 8.5232 8.0609C8.5733 7.9355 8.65814 7.82832 8.767 7.75291C8.87585 7.6775 9.00383 7.63726 9.13475 7.63726C9.31031 7.63726 9.47868 7.70956 9.60281 7.83826C9.72695 7.96696 9.79669 8.14152 9.79669 8.32353ZM3.97163 11.0686C3.97163 11.2044 3.93281 11.337 3.86007 11.4499C3.78734 11.5628 3.68396 11.6507 3.56301 11.7027C3.44205 11.7546 3.30896 11.7682 3.18055 11.7417C3.05215 11.7152 2.93421 11.6499 2.84163 11.5539C2.74906 11.4579 2.68601 11.3356 2.66047 11.2025C2.63493 11.0694 2.64804 10.9314 2.69814 10.806C2.74824 10.6806 2.83308 10.5734 2.94194 10.498C3.05079 10.4226 3.17877 10.3824 3.30969 10.3824C3.48525 10.3824 3.65362 10.4547 3.77775 10.5834C3.90189 10.7121 3.97163 10.8866 3.97163 11.0686ZM6.88416 11.0686C6.88416 11.2044 6.84534 11.337 6.7726 11.4499C6.69987 11.5628 6.59649 11.6507 6.47553 11.7027C6.35458 11.7546 6.22149 11.7682 6.09308 11.7417C5.96468 11.7152 5.84674 11.6499 5.75416 11.5539C5.66159 11.4579 5.59854 11.3356 5.573 11.2025C5.54746 11.0694 5.56057 10.9314 5.61067 10.806C5.66077 10.6806 5.74561 10.5734 5.85447 10.498C5.96332 10.4226 6.0913 10.3824 6.22222 10.3824C6.39778 10.3824 6.56615 10.4547 6.69028 10.5834C6.81442 10.7121 6.88416 10.8866 6.88416 11.0686ZM9.79669 11.0686C9.79669 11.2044 9.75787 11.337 9.68513 11.4499C9.6124 11.5628 9.50902 11.6507 9.38806 11.7027C9.26711 11.7546 9.13402 11.7682 9.00562 11.7417C8.87721 11.7152 8.75926 11.6499 8.66669 11.5539C8.57412 11.4579 8.51107 11.3356 8.48553 11.2025C8.45999 11.0694 8.4731 10.9314 8.5232 10.806C8.5733 10.6806 8.65814 10.5734 8.767 10.498C8.87585 10.4226 9.00383 10.3824 9.13475 10.3824C9.31031 10.3824 9.47868 10.4547 9.60281 10.5834C9.72695 10.7121 9.79669 10.8866 9.79669 11.0686Z" fill="#181818"/>
</svg>
