<svg width="18" height="18" viewBox="0 0 18 18" fill="none" xmlns="http://www.w3.org/2000/svg">
<path d="M9 0C7.21997 0 5.47991 0.52784 3.99987 1.51677C2.51983 2.50571 1.36628 3.91131 0.685088 5.55585C0.00389941 7.20038 -0.17433 9.00998 0.172937 10.7558C0.520203 12.5016 1.37737 14.1053 2.63604 15.364C3.89471 16.6226 5.49836 17.4798 7.24419 17.8271C8.99002 18.1743 10.7996 17.9961 12.4442 17.3149C14.0887 16.6337 15.4943 15.4802 16.4832 14.0001C17.4722 12.5201 18 10.78 18 9C17.9972 6.61391 17.0481 4.32635 15.3609 2.63913C13.6736 0.951914 11.3861 0.00280222 9 0ZM9 16.9412C7.42939 16.9412 5.89404 16.4754 4.58812 15.6028C3.2822 14.7303 2.26436 13.49 1.66331 12.039C1.06226 10.5879 0.905003 8.99119 1.21141 7.45075C1.51783 5.91031 2.27415 4.49533 3.38474 3.38474C4.49534 2.27415 5.91032 1.51782 7.45076 1.21141C8.99119 0.904999 10.5879 1.06226 12.039 1.66331C13.49 2.26436 14.7303 3.2822 15.6028 4.58812C16.4754 5.89404 16.9412 7.42938 16.9412 9C16.9388 11.1054 16.1014 13.1239 14.6127 14.6127C13.1239 16.1014 11.1054 16.9388 9 16.9412ZM14.4706 9C14.4706 9.14041 14.4148 9.27507 14.3155 9.37435C14.2162 9.47363 14.0816 9.52941 13.9412 9.52941H9C8.85959 9.52941 8.72494 9.47363 8.62565 9.37435C8.52637 9.27507 8.47059 9.14041 8.47059 9V4.05882C8.47059 3.91841 8.52637 3.78376 8.62565 3.68447C8.72494 3.58519 8.85959 3.52941 9 3.52941C9.14041 3.52941 9.27507 3.58519 9.37435 3.68447C9.47364 3.78376 9.52941 3.91841 9.52941 4.05882V8.47059H13.9412C14.0816 8.47059 14.2162 8.52636 14.3155 8.62565C14.4148 8.72493 14.4706 8.85959 14.4706 9Z" fill="#181818"/>
</svg>
