<svg width="24" height="4" viewBox="0 0 24 4" fill="none" xmlns="http://www.w3.org/2000/svg">
<path d="M1.53846 3.5C1.23418 3.5 0.936738 3.41203 0.683739 3.2472C0.43074 3.08238 0.233552 2.84811 0.117109 2.57402C0.000666591 2.29994 -0.0298001 1.99834 0.0295618 1.70737C0.0889237 1.41639 0.235448 1.14912 0.450606 0.939339C0.665764 0.72956 0.939891 0.586701 1.23832 0.528823C1.53676 0.470945 1.84609 0.500649 2.12721 0.61418C2.40832 0.727712 2.6486 0.91997 2.81765 1.16664C2.9867 1.41332 3.07692 1.70333 3.07692 2C3.07692 2.39782 2.91484 2.77936 2.62632 3.06066C2.3378 3.34196 1.94649 3.5 1.53846 3.5ZM10.4615 2C10.4615 2.29667 10.5518 2.58668 10.7208 2.83335C10.8899 3.08003 11.1301 3.27229 11.4113 3.38582C11.6924 3.49935 12.0017 3.52906 12.3001 3.47118C12.5986 3.4133 12.8727 3.27044 13.0879 3.06066C13.303 2.85088 13.4495 2.58361 13.5089 2.29264C13.5683 2.00166 13.5378 1.70006 13.4214 1.42598C13.3049 1.15189 13.1077 0.917618 12.8547 0.752795C12.6017 0.587973 12.3043 0.5 12 0.5C11.592 0.5 11.2007 0.658034 10.9121 0.939339C10.6236 1.22064 10.4615 1.60217 10.4615 2ZM20.9231 2C20.9231 2.29667 21.0133 2.58668 21.1824 2.83335C21.3514 3.08003 21.5917 3.27229 21.8728 3.38582C22.1539 3.49935 22.4632 3.52906 22.7617 3.47118C23.0601 3.4133 23.3342 3.27044 23.5494 3.06066C23.7646 2.85088 23.9111 2.58361 23.9704 2.29264C24.0298 2.00166 23.9993 1.70006 23.8829 1.42598C23.7665 1.15189 23.5693 0.917618 23.3163 0.752795C23.0633 0.587973 22.7658 0.5 22.4615 0.5C22.0535 0.5 21.6622 0.658034 21.3737 0.939339C21.0852 1.22064 20.9231 1.60217 20.9231 2Z" fill="#16171A"/>
</svg>
