<svg width="16" height="10" viewBox="0 0 16 10" fill="none" xmlns="http://www.w3.org/2000/svg">
<path d="M15.8499 1.48876L8.39511 9.32805C8.29027 9.43816 8.14816 9.5 8 9.5C7.85183 9.5 7.70973 9.43816 7.60489 9.32805L0.15006 1.48876C0.0512979 1.37731 -0.00246857 1.22989 8.71078e-05 1.07758C0.00264279 0.925257 0.0613211 0.779928 0.16376 0.672206C0.266199 0.564484 0.404401 0.502779 0.549249 0.500092C0.694097 0.497404 0.834283 0.553944 0.940272 0.657799L8 8.08063L15.0597 0.657799C15.1657 0.553944 15.3059 0.497404 15.4508 0.500092C15.5956 0.502779 15.7338 0.564484 15.8362 0.672206C15.9387 0.779928 15.9974 0.925257 15.9999 1.07758C16.0025 1.22989 15.9487 1.37731 15.8499 1.48876Z" fill="#181818"/>
</svg>
