<svg width="22" height="15" viewBox="0 0 22 15" fill="none" xmlns="http://www.w3.org/2000/svg">
<path d="M21.9517 7.28192C21.92 7.21192 21.1444 5.55615 19.4123 3.88872C17.8052 2.34333 15.0439 0.5 11 0.5C6.95605 0.5 4.19483 2.34333 2.58769 3.88872C0.855637 5.55615 0.0800344 7.20923 0.0483391 7.28192C0.0164689 7.35085 0 7.42545 0 7.5009C0 7.57634 0.0164689 7.65095 0.0483391 7.71987C0.0800344 7.78897 0.855637 9.44474 2.58769 11.1122C4.19483 12.6576 6.95605 14.5 11 14.5C15.0439 14.5 17.8052 12.6576 19.4123 11.1122C21.1444 9.44474 21.92 7.79167 21.9517 7.71987C21.9835 7.65095 22 7.57634 22 7.5009C22 7.42545 21.9835 7.35085 21.9517 7.28192ZM11 13.4231C8.07471 13.4231 5.52044 12.3982 3.40711 10.3781C2.5212 9.53049 1.77154 8.56046 1.18284 7.5C1.77137 6.4397 2.52106 5.46995 3.40711 4.62282C5.52044 2.6018 8.07471 1.57692 11 1.57692C13.9253 1.57692 16.4796 2.6018 18.5929 4.62282C19.4789 5.46995 20.2286 6.4397 20.8172 7.5C20.2233 8.59577 17.2458 13.4231 11 13.4231ZM11 3.37179C10.1519 3.37179 9.3228 3.61391 8.61761 4.06752C7.91242 4.52114 7.36279 5.16587 7.03823 5.9202C6.71367 6.67454 6.62875 7.50458 6.79421 8.30537C6.95967 9.10617 7.36808 9.84174 7.96779 10.4191C8.56751 10.9964 9.33159 11.3896 10.1634 11.5489C10.9952 11.7082 11.8575 11.6264 12.641 11.314C13.4246 11.0015 14.0943 10.4724 14.5655 9.79351C15.0367 9.11463 15.2882 8.31648 15.2882 7.5C15.2867 6.40557 14.8344 5.35637 14.0306 4.58249C13.2267 3.80861 12.1368 3.37322 11 3.37179ZM11 10.5513C10.3731 10.5513 9.76033 10.3723 9.2391 10.037C8.71788 9.70177 8.31163 9.22522 8.07174 8.66768C7.83184 8.11013 7.76907 7.49662 7.89137 6.90472C8.01367 6.31283 8.31554 5.76915 8.7588 5.34242C9.20207 4.91569 9.76683 4.62508 10.3817 4.50735C10.9965 4.38961 11.6338 4.45004 12.2129 4.68098C12.7921 4.91193 13.2871 5.30302 13.6354 5.8048C13.9836 6.30658 14.1695 6.89651 14.1695 7.5C14.1695 8.30925 13.8356 9.08536 13.2412 9.65758C12.6468 10.2298 11.8406 10.5513 11 10.5513Z" fill="black"/>
</svg>
