<svg width="22" height="17" viewBox="0 0 22 17" fill="none" xmlns="http://www.w3.org/2000/svg">
<path d="M3.95618 0.145202C3.85379 0.0528165 3.71953 0.00102392 3.57983 1.50204e-05C3.44013 -0.000993874 3.30509 0.048854 3.20129 0.139751C3.0975 0.230648 3.03245 0.356012 3.01896 0.491179C3.00546 0.626345 3.0445 0.761528 3.12838 0.870128L5.07484 2.95429C1.59955 4.93878 0.112662 8.11939 0.0483391 8.26166C0.0164689 8.33125 0 8.40658 0 8.48276C0 8.55894 0.0164689 8.63427 0.0483391 8.70386C0.0800344 8.77363 0.855637 10.4455 2.58769 12.1291C4.19483 13.6895 6.95605 15.5499 11 15.5499C12.6903 15.5599 14.3626 15.212 15.9007 14.5305L18.0447 16.8221C18.1446 16.9288 18.284 16.9926 18.4323 16.9994C18.5805 17.0062 18.7255 16.9555 18.8353 16.8584C18.945 16.7613 19.0106 16.6258 19.0176 16.4817C19.0246 16.3376 18.9724 16.1967 18.8726 16.09L3.95618 0.145202ZM8.48861 6.60792L12.6836 11.0952C12.0538 11.4778 11.3057 11.6332 10.5701 11.5343C9.83439 11.4355 9.15778 11.0887 8.65831 10.5544C8.15885 10.0202 7.86825 9.33236 7.83724 8.61108C7.80622 7.8898 8.03676 7.18084 8.48861 6.60792ZM11 14.4625C8.07471 14.4625 5.52044 13.4277 3.40711 11.3879C2.52099 10.5323 1.7713 9.55277 1.18284 8.48185C1.58276 7.7388 3.0566 5.29399 5.84392 3.77799L7.72699 5.79056C7.05656 6.56281 6.69754 7.54549 6.71672 8.5558C6.7359 9.5661 7.13199 10.5352 7.83128 11.2829C8.53058 12.0306 9.48547 12.5059 10.5183 12.6204C11.5512 12.7348 12.5916 12.4807 13.4461 11.9053L15.1064 13.6814C13.8048 14.2049 12.4087 14.4705 11 14.4625ZM11.5966 5.45529C11.4509 5.42825 11.3221 5.34604 11.2388 5.22674C11.1554 5.10745 11.1241 4.96084 11.152 4.81916C11.1798 4.67749 11.2643 4.55236 11.3871 4.4713C11.5098 4.39024 11.6606 4.35989 11.8064 4.38693C12.7172 4.55892 13.5464 5.0124 14.1705 5.67978C14.7946 6.34716 15.1801 7.19271 15.2695 8.09039C15.2763 8.1615 15.2687 8.2332 15.247 8.30142C15.2253 8.36965 15.1899 8.43304 15.143 8.48799C15.0961 8.54294 15.0385 8.58836 14.9735 8.62167C14.9085 8.65498 14.8374 8.67552 14.7643 8.68211H14.7121C14.5722 8.68269 14.4372 8.63229 14.3337 8.54088C14.2301 8.44946 14.1656 8.32365 14.1528 8.18826C14.0863 7.52589 13.8016 6.90209 13.341 6.40966C12.8804 5.91724 12.2686 5.58251 11.5966 5.45529ZM21.9517 8.70386C21.9134 8.78723 20.985 10.788 18.8884 12.6112C18.834 12.6608 18.77 12.6992 18.7001 12.7244C18.6302 12.7495 18.5558 12.7609 18.4814 12.7577C18.4069 12.7545 18.3338 12.7369 18.2665 12.7059C18.1991 12.6749 18.1388 12.6311 18.0891 12.5771C18.0394 12.5231 18.0013 12.46 17.977 12.3915C17.9528 12.323 17.9429 12.2504 17.9478 12.1781C17.9528 12.1058 17.9726 12.0353 18.0061 11.9705C18.0395 11.9058 18.086 11.8482 18.1426 11.8011C19.2263 10.8547 20.1315 9.73134 20.8172 8.48185C20.2286 7.41101 19.4789 6.43154 18.5929 5.5758C16.4796 3.53604 13.9253 2.50121 11 2.50121C10.3851 2.5005 9.77118 2.54899 9.16447 2.6462C9.09142 2.65958 9.01635 2.65868 8.94366 2.64354C8.87098 2.6284 8.80212 2.59932 8.74113 2.55802C8.68013 2.51671 8.62822 2.464 8.58842 2.40296C8.54863 2.34193 8.52175 2.27379 8.50936 2.20254C8.49696 2.13129 8.49931 2.05836 8.51625 1.988C8.53319 1.91764 8.56439 1.85127 8.60803 1.79277C8.65167 1.73427 8.70686 1.68481 8.77039 1.64728C8.83392 1.60975 8.90451 1.58491 8.97803 1.57421C9.64628 1.46638 10.3226 1.41273 11 1.41382C15.0439 1.41382 17.8052 3.27507 19.4123 4.83547C21.1444 6.51912 21.92 8.18826 21.9517 8.26166C21.9835 8.33125 22 8.40658 22 8.48276C22 8.55894 21.9835 8.63427 21.9517 8.70386Z" fill="black"/>
</svg>
