<svg width="19" height="20" viewBox="0 0 19 20" fill="none" xmlns="http://www.w3.org/2000/svg">
<path d="M18.5856 8.58169L10.5005 0.418468C10.3691 0.285799 10.2132 0.180558 10.0415 0.108757C9.86982 0.0369559 9.68582 0 9.5 0C9.31418 0 9.13018 0.0369559 8.95851 0.108757C8.78684 0.180558 8.63086 0.285799 8.49947 0.418468L0.414366 8.58169C0.282624 8.71409 0.178175 8.87153 0.107054 9.04492C0.0359321 9.21831 -0.000451895 9.40422 4.23615e-06 9.59189V19.3878C4.23615e-06 19.5501 0.0638907 19.7059 0.17761 19.8207C0.291328 19.9355 0.445564 20 0.606387 20H7.07447C7.23529 20 7.38953 19.9355 7.50325 19.8207C7.61696 19.7059 7.68085 19.5501 7.68085 19.3878V13.4694H11.3191V19.3878C11.3191 19.5501 11.383 19.7059 11.4968 19.8207C11.6105 19.9355 11.7647 20 11.9255 20H18.3936C18.5544 20 18.7087 19.9355 18.8224 19.8207C18.9361 19.7059 19 19.5501 19 19.3878V9.59189C19.0005 9.40422 18.9641 9.21831 18.8929 9.04492C18.8218 8.87153 18.7174 8.71409 18.5856 8.58169ZM17.7872 18.7755H12.5319V12.8572C12.5319 12.6948 12.468 12.5391 12.3543 12.4243C12.2406 12.3094 12.0864 12.2449 11.9255 12.2449H7.07447C6.91365 12.2449 6.75941 12.3094 6.64569 12.4243C6.53197 12.5391 6.46809 12.6948 6.46809 12.8572V18.7755H1.21277V9.59189C1.21262 9.56503 1.21771 9.53841 1.22777 9.51354C1.23783 9.48868 1.25265 9.46606 1.27139 9.44699L9.35649 1.28377C9.37528 1.26464 9.39764 1.24946 9.42227 1.2391C9.4469 1.22874 9.47332 1.2234 9.5 1.2234C9.52668 1.2234 9.5531 1.22874 9.57773 1.2391C9.60236 1.24946 9.62472 1.26464 9.64351 1.28377L17.7286 9.44699C17.7473 9.46606 17.7622 9.48868 17.7722 9.51354C17.7823 9.53841 17.7874 9.56503 17.7872 9.59189V18.7755Z" fill="white"/>
</svg>
