<svg width="16" height="18" viewBox="0 0 16 18" fill="none" xmlns="http://www.w3.org/2000/svg">
<path d="M14.1277 6.11321H11.5235V3.90566C11.5235 2.86981 11.1522 1.87639 10.4915 1.14394C9.83071 0.411488 8.93451 0 8.00005 0C7.06558 0 6.16939 0.411488 5.50863 1.14394C4.84786 1.87639 4.47664 2.86981 4.47664 3.90566V6.11321H1.87239C1.58799 6.11321 1.31523 6.23844 1.11413 6.46136C0.913027 6.68428 0.800049 6.98663 0.800049 7.30189V16.8113C0.800049 17.1266 0.913027 17.4289 1.11413 17.6518C1.31523 17.8748 1.58799 18 1.87239 18H14.1277C14.4121 18 14.6849 17.8748 14.886 17.6518C15.0871 17.4289 15.2 17.1266 15.2 16.8113V7.30189C15.2 6.98663 15.0871 6.68428 14.886 6.46136C14.6849 6.23844 14.4121 6.11321 14.1277 6.11321ZM5.39579 3.90566C5.39579 3.14004 5.67017 2.40577 6.15856 1.86439C6.64695 1.32301 7.30936 1.01887 8.00005 1.01887C8.69074 1.01887 9.35314 1.32301 9.84154 1.86439C10.3299 2.40577 10.6043 3.14004 10.6043 3.90566V6.11321H5.39579V3.90566ZM14.2809 16.8113C14.2809 16.8564 14.2648 16.8995 14.236 16.9314C14.2073 16.9632 14.1683 16.9811 14.1277 16.9811H1.87239C1.83176 16.9811 1.7928 16.9632 1.76407 16.9314C1.73534 16.8995 1.7192 16.8564 1.7192 16.8113V7.30189C1.7192 7.25685 1.73534 7.21366 1.76407 7.18181C1.7928 7.14997 1.83176 7.13208 1.87239 7.13208H14.1277C14.1683 7.13208 14.2073 7.14997 14.236 7.18181C14.2648 7.21366 14.2809 7.25685 14.2809 7.30189V16.8113ZM8.76601 12.0566C8.76601 12.2245 8.72108 12.3887 8.63692 12.5283C8.55275 12.6679 8.43313 12.7768 8.29317 12.841C8.15321 12.9053 7.9992 12.9221 7.85062 12.8893C7.70204 12.8566 7.56556 12.7757 7.45844 12.657C7.35131 12.5382 7.27836 12.3869 7.24881 12.2222C7.21925 12.0575 7.23442 11.8868 7.2924 11.7317C7.35037 11.5765 7.44854 11.4439 7.57451 11.3506C7.70047 11.2573 7.84856 11.2075 8.00005 11.2075C8.20319 11.2075 8.39802 11.297 8.54166 11.4562C8.68531 11.6155 8.76601 11.8314 8.76601 12.0566Z" fill="#181818"/>
</svg>
