<svg width="16" height="16" viewBox="0 0 16 16" fill="none" xmlns="http://www.w3.org/2000/svg">
<path d="M15.6653 3.98292L12.0172 0.334775C11.911 0.228639 11.7851 0.144447 11.6464 0.0870056C11.5077 0.0295647 11.3591 0 11.209 0C11.0589 0 10.9103 0.0295647 10.7716 0.0870056C10.633 0.144447 10.507 0.228639 10.4008 0.334775L0.333962 10.4008C0.227623 10.5068 0.143304 10.6328 0.0858624 10.7715C0.0284205 10.9102 -0.00100905 11.0589 -0.000730462 11.209V14.8571C-0.000730462 15.1603 0.119677 15.4509 0.334003 15.6653C0.548329 15.8796 0.839018 16 1.14212 16H14.8563C14.9862 16 15.1108 15.9484 15.2027 15.8565C15.2945 15.7647 15.3461 15.6401 15.3461 15.5102C15.3461 15.3803 15.2945 15.2557 15.2027 15.1639C15.1108 15.072 14.9862 15.0204 14.8563 15.0204H6.24332L15.6653 5.59924C15.7714 5.49311 15.8556 5.36712 15.9131 5.22846C15.9705 5.08979 16.0001 4.94117 16.0001 4.79108C16.0001 4.64099 15.9705 4.49237 15.9131 4.3537C15.8556 4.21504 15.7714 4.08904 15.6653 3.98292ZM4.85802 15.0204H1.14212C1.09882 15.0204 1.05729 15.0032 1.02668 14.9726C0.996057 14.942 0.978856 14.9004 0.978856 14.8571V11.209C0.979039 11.1658 0.996359 11.1244 1.02702 11.0939L8.32576 3.79516L12.2049 7.67351L4.85802 15.0204ZM14.9723 4.90618L12.8972 6.98127L9.01882 3.10211L11.0931 1.02783C11.1083 1.01265 11.1263 1.00061 11.1461 0.992394C11.1659 0.984178 11.1871 0.979949 11.2086 0.979949C11.2301 0.979949 11.2513 0.984178 11.2711 0.992394C11.2909 1.00061 11.3089 1.01265 11.3241 1.02783L14.9723 4.67516C14.9874 4.69032 14.9995 4.70833 15.0077 4.72815C15.0159 4.74797 15.0201 4.76921 15.0201 4.79067C15.0201 4.81213 15.0159 4.83337 15.0077 4.85319C14.9995 4.87301 14.9874 4.89102 14.9723 4.90618Z" fill="#212228"/>
</svg>
