<svg width="22" height="22" viewBox="0 0 22 22" fill="none" xmlns="http://www.w3.org/2000/svg">
<path d="M22 11C22 11.1862 21.926 11.3648 21.7944 11.4965C21.6627 11.6282 21.4841 11.7021 21.2979 11.7021H11.7021V21.2979C11.7021 21.4841 11.6282 21.6627 11.4965 21.7944C11.3648 21.926 11.1862 22 11 22C10.8138 22 10.6352 21.926 10.5035 21.7944C10.3718 21.6627 10.2979 21.4841 10.2979 21.2979V11.7021H0.702128C0.515912 11.7021 0.337323 11.6282 0.205648 11.4965C0.0739739 11.3648 0 11.1862 0 11C0 10.8138 0.0739739 10.6352 0.205648 10.5035C0.337323 10.3718 0.515912 10.2979 0.702128 10.2979H10.2979V0.702128C10.2979 0.515912 10.3718 0.337323 10.5035 0.205648C10.6352 0.0739739 10.8138 0 11 0C11.1862 0 11.3648 0.0739739 11.4965 0.205648C11.6282 0.337323 11.7021 0.515912 11.7021 0.702128V10.2979H21.2979C21.4841 10.2979 21.6627 10.3718 21.7944 10.5035C21.926 10.6352 22 10.8138 22 11Z" fill="#181818"/>
</svg>
