<svg width="18" height="16" viewBox="0 0 18 16" fill="none" xmlns="http://www.w3.org/2000/svg">
<path d="M17.5 8.00144C17.5002 10.1043 16.6893 12.1227 15.2429 13.6197C13.7965 15.1167 11.8309 15.9718 9.77167 16H9.66667C7.66699 16.0043 5.74236 15.2227 4.29167 13.8174C4.24234 13.7718 4.20244 13.7166 4.17428 13.655C4.14613 13.5934 4.1303 13.5267 4.12772 13.4588C4.12513 13.3909 4.13585 13.3232 4.15924 13.2596C4.18263 13.196 4.21822 13.1378 4.26392 13.0884C4.30963 13.039 4.36453 12.9994 4.42541 12.972C4.48629 12.9445 4.55193 12.9298 4.61846 12.9285C4.685 12.9273 4.7511 12.9397 4.8129 12.9649C4.8747 12.9901 4.93094 13.0277 4.97833 13.0754C5.95547 14.0162 7.18245 14.6422 8.50597 14.875C9.82949 15.1079 11.1909 14.9373 12.42 14.3847C13.6492 13.8321 14.6916 12.9218 15.417 11.7678C16.1425 10.6137 16.5187 9.26689 16.4989 7.89569C16.479 6.52449 16.0639 5.18966 15.3053 4.05799C14.5468 2.92632 13.4785 2.04798 12.2338 1.53271C10.9892 1.01744 9.6235 0.888088 8.3073 1.16082C6.9911 1.43355 5.78279 2.09627 4.83333 3.06617L4.8175 3.08234L2.28667 5.44872H5C5.13261 5.44872 5.25979 5.50251 5.35355 5.59825C5.44732 5.694 5.5 5.82386 5.5 5.95926C5.5 6.09467 5.44732 6.22453 5.35355 6.32027C5.25979 6.41602 5.13261 6.46981 5 6.46981H1C0.867392 6.46981 0.740215 6.41602 0.646447 6.32027C0.552678 6.22453 0.5 6.09467 0.5 5.95926V1.8749C0.5 1.7395 0.552678 1.60964 0.646447 1.51389C0.740215 1.41815 0.867392 1.36436 1 1.36436C1.13261 1.36436 1.25979 1.41815 1.35355 1.51389C1.44732 1.60964 1.5 1.7395 1.5 1.8749V4.79692L4.13583 2.33439C5.23243 1.21796 6.6285 0.458456 8.14765 0.151833C9.6668 -0.15479 11.2409 0.0052279 12.671 0.61167C14.1011 1.21811 15.3231 2.24377 16.1826 3.55905C17.0421 4.87434 17.5006 6.42024 17.5 8.00144Z" fill="#181818"/>
</svg>
