<svg width="26" height="24" viewBox="0 0 26 24" fill="none" xmlns="http://www.w3.org/2000/svg">
<path d="M13.0011 6.96878C12.006 6.96878 11.0333 7.26386 10.2059 7.8167C9.37853 8.36954 8.73366 9.15531 8.35286 10.0747C7.97205 10.994 7.87242 12.0056 8.06655 12.9816C8.26068 13.9575 8.73986 14.854 9.4435 15.5577C10.1471 16.2613 11.0436 16.7405 12.0196 16.9346C12.9955 17.1287 14.0072 17.0291 14.9265 16.6483C15.8458 16.2675 16.6316 15.6226 17.1845 14.7952C17.7373 13.9679 18.0324 12.9951 18.0324 12C18.0306 10.6662 17.5 9.38748 16.5568 8.44432C15.6137 7.50115 14.335 6.97052 13.0011 6.96878ZM13.0011 15.7188C12.2656 15.7188 11.5466 15.5007 10.9351 15.0921C10.3236 14.6834 9.84691 14.1026 9.56545 13.4231C9.28399 12.7436 9.21034 11.9959 9.35383 11.2745C9.49732 10.5532 9.8515 9.89055 10.3716 9.37048C10.8916 8.8504 11.5543 8.49622 12.2756 8.35274C12.997 8.20925 13.7447 8.28289 14.4242 8.56435C15.1037 8.84582 15.6845 9.32246 16.0932 9.934C16.5018 10.5455 16.7199 11.2645 16.7199 12C16.7199 12.9863 16.3281 13.9322 15.6307 14.6296C14.9333 15.327 13.9874 15.7188 13.0011 15.7188ZM24.8136 9.76878C24.7946 9.67733 24.7563 9.59099 24.7012 9.51554C24.6461 9.44009 24.5756 9.37727 24.4943 9.33128L21.1649 7.43034L21.1189 7.35269L21.1058 3.60003C21.1058 3.50524 21.0853 3.41158 21.0456 3.32548C21.006 3.23938 20.9482 3.16289 20.8761 3.10128C19.7133 2.11808 18.3746 1.36429 16.931 0.879875C16.8442 0.850694 16.7522 0.839998 16.6611 0.848475C16.5699 0.856951 16.4815 0.884413 16.4016 0.929093L13.0514 2.79722H12.9421L9.60066 0.926906C9.52037 0.882093 9.43156 0.854653 9.33999 0.846362C9.24842 0.838072 9.15613 0.849116 9.0691 0.878781C7.62558 1.36461 6.28753 2.12031 5.12613 3.10566C5.05383 3.16694 4.99567 3.24316 4.95565 3.32907C4.91562 3.41498 4.89467 3.50854 4.89425 3.60331L4.87675 7.35925C4.86144 7.38441 4.84613 7.41066 4.83191 7.43691L1.50691 9.328C1.42519 9.37469 1.35448 9.43842 1.29956 9.51485C1.24465 9.59128 1.20681 9.67863 1.18863 9.77097C0.896597 11.2434 0.896597 12.7588 1.18863 14.2313C1.20766 14.3227 1.24599 14.4091 1.30107 14.4845C1.35615 14.56 1.4267 14.6228 1.508 14.6688L4.83519 16.5642L4.88113 16.6419L4.89425 20.3946C4.89372 20.4904 4.91421 20.5853 4.95427 20.6724C4.99433 20.7595 5.05299 20.8368 5.12613 20.8988C6.28893 21.882 7.62763 22.6358 9.07128 23.1202C9.15807 23.1494 9.25001 23.1601 9.34118 23.1516C9.43235 23.1431 9.52074 23.1156 9.60066 23.071L12.9486 21.2028H13.058L16.4005 23.0732C16.4983 23.1272 16.6081 23.1558 16.7199 23.1563C16.7917 23.1566 16.8631 23.1448 16.931 23.1213C18.3726 22.6348 19.7087 21.8792 20.8685 20.8944C20.9408 20.8331 20.9989 20.7569 21.0389 20.671C21.079 20.5851 21.0999 20.4915 21.1003 20.3967L21.1178 16.6408C21.1332 16.6157 21.1485 16.5894 21.1627 16.5632L24.4899 14.6721C24.5718 14.6255 24.6427 14.5618 24.6978 14.4854C24.7529 14.4089 24.7909 14.3215 24.8093 14.2291C25.1027 12.7569 25.1042 11.2415 24.8136 9.76878ZM23.5832 13.6833L20.3643 15.511C20.2599 15.5707 20.1737 15.6576 20.1149 15.7625C20.0503 15.8719 19.9825 15.9933 19.9114 16.106C19.8467 16.2097 19.8123 16.3294 19.8119 16.4516L19.7944 20.0839C18.8894 20.809 17.8729 21.3826 16.7844 21.7825L13.548 19.9713C13.4501 19.9163 13.3398 19.8873 13.2275 19.8871H13.2122C13.0766 19.8871 12.9388 19.8871 12.8032 19.8871C12.6858 19.8842 12.5699 19.9129 12.4674 19.9702L9.22222 21.7814C8.13236 21.3836 7.11432 20.8114 6.20785 20.0872L6.19472 16.4592C6.19438 16.337 6.15991 16.2173 6.09519 16.1136C6.02519 16.0042 5.95628 15.8861 5.89175 15.7702C5.83356 15.6652 5.74768 15.5782 5.64347 15.5186L2.42456 13.6844C2.23745 12.5697 2.23745 11.4315 2.42456 10.3167L5.638 8.48909C5.74399 8.43 5.83175 8.343 5.89175 8.23753C5.95628 8.12816 6.0241 8.00675 6.09519 7.89409C6.15991 7.7904 6.19438 7.6707 6.19472 7.54847L6.21222 3.91612C7.11589 3.19148 8.13089 2.61787 9.21785 2.21753L12.4543 4.02878C12.5563 4.08701 12.6726 4.11578 12.79 4.11191C12.9257 4.11191 13.0635 4.11191 13.1991 4.11191C13.3164 4.11473 13.4324 4.08602 13.5349 4.02878L16.7778 2.21753C17.8677 2.61541 18.8857 3.18759 19.7922 3.91175L19.8053 7.53972C19.8057 7.66195 19.8402 7.78165 19.9049 7.88534C19.9749 7.99472 20.0438 8.11284 20.1083 8.22878C20.1665 8.33376 20.2524 8.42077 20.3566 8.48034L23.5777 10.3157C23.7659 11.4302 23.767 12.5684 23.581 13.6833H23.5832Z" fill="white"/>
</svg>
