<svg width="10" height="16" viewBox="0 0 10 16" fill="none" xmlns="http://www.w3.org/2000/svg">
<path d="M2.17391 1.02564C2.17391 1.22849 2.11016 1.42679 1.99073 1.59546C1.87129 1.76412 1.70153 1.89558 1.50292 1.97321C1.3043 2.05084 1.08575 2.07115 0.874902 2.03158C0.664053 1.992 0.470376 1.89432 0.318363 1.75088C0.166349 1.60744 0.0628264 1.42469 0.0208859 1.22573C-0.0210545 1.02678 0.000471265 0.820557 0.0827404 0.633146C0.16501 0.445734 0.304327 0.285551 0.483076 0.172852C0.661825 0.0601532 0.871977 5.54409e-07 1.08696 5.54409e-07C1.37524 5.54409e-07 1.65171 0.108059 1.85555 0.300404C2.05939 0.492749 2.17391 0.753625 2.17391 1.02564ZM8.91304 2.05128C9.12802 2.05128 9.33818 1.99113 9.51692 1.87843C9.69567 1.76573 9.83499 1.60555 9.91726 1.41814C9.99953 1.23073 10.0211 1.0245 9.97911 0.825549C9.93717 0.626594 9.83365 0.443842 9.68164 0.300404C9.52962 0.156965 9.33595 0.0592825 9.1251 0.0197079C8.91425 -0.0198667 8.6957 0.000444394 8.49708 0.0780727C8.29847 0.155701 8.12871 0.28716 8.00927 0.455826C7.88984 0.624492 7.82609 0.822789 7.82609 1.02564C7.82609 1.29766 7.9406 1.55853 8.14445 1.75088C8.34829 1.94322 8.62476 2.05128 8.91304 2.05128ZM1.08696 6.97436C0.871977 6.97436 0.661825 7.03451 0.483076 7.14721C0.304327 7.25991 0.16501 7.42009 0.0827404 7.6075C0.000471265 7.79492 -0.0210545 8.00114 0.0208859 8.20009C0.0628264 8.39905 0.166349 8.5818 0.318363 8.72524C0.470376 8.86868 0.664053 8.96636 0.874902 9.00593C1.08575 9.04551 1.3043 9.0252 1.50292 8.94757C1.70153 8.86994 1.87129 8.73848 1.99073 8.56982C2.11016 8.40115 2.17391 8.20285 2.17391 8C2.17391 7.72798 2.05939 7.46711 1.85555 7.27476C1.65171 7.08242 1.37524 6.97436 1.08696 6.97436ZM8.91304 6.97436C8.69806 6.97436 8.48791 7.03451 8.30916 7.14721C8.13041 7.25991 7.9911 7.42009 7.90883 7.6075C7.82656 7.79492 7.80503 8.00114 7.84697 8.20009C7.88891 8.39905 7.99243 8.5818 8.14445 8.72524C8.29646 8.86868 8.49014 8.96636 8.70099 9.00593C8.91184 9.04551 9.13039 9.0252 9.329 8.94757C9.52762 8.86994 9.69738 8.73848 9.81681 8.56982C9.93625 8.40115 10 8.20285 10 8C10 7.72798 9.88548 7.46711 9.68164 7.27476C9.47779 7.08242 9.20132 6.97436 8.91304 6.97436ZM1.08696 13.9487C0.871977 13.9487 0.661825 14.0089 0.483076 14.1216C0.304327 14.2343 0.16501 14.3945 0.0827404 14.5819C0.000471265 14.7693 -0.0210545 14.9755 0.0208859 15.1745C0.0628264 15.3734 0.166349 15.5562 0.318363 15.6996C0.470376 15.843 0.664053 15.9407 0.874902 15.9803C1.08575 16.0199 1.3043 15.9996 1.50292 15.9219C1.70153 15.8443 1.87129 15.7128 1.99073 15.5442C2.11016 15.3755 2.17391 15.1772 2.17391 14.9744C2.17391 14.7023 2.05939 14.4415 1.85555 14.2491C1.65171 14.0568 1.37524 13.9487 1.08696 13.9487ZM8.91304 13.9487C8.69806 13.9487 8.48791 14.0089 8.30916 14.1216C8.13041 14.2343 7.9911 14.3945 7.90883 14.5819C7.82656 14.7693 7.80503 14.9755 7.84697 15.1745C7.88891 15.3734 7.99243 15.5562 8.14445 15.6996C8.29646 15.843 8.49014 15.9407 8.70099 15.9803C8.91184 16.0199 9.13039 15.9996 9.329 15.9219C9.52762 15.8443 9.69738 15.7128 9.81681 15.5442C9.93625 15.3755 10 15.1772 10 14.9744C10 14.7023 9.88548 14.4415 9.68164 14.2491C9.47779 14.0568 9.20132 13.9487 8.91304 13.9487Z" fill="black"/>
</svg>
