<svg width="15" height="16" viewBox="0 0 15 16" fill="none" xmlns="http://www.w3.org/2000/svg">
<path d="M14.5405 2.5098H11.3235V1.72549C11.3235 1.26786 11.146 0.828977 10.8299 0.505384C10.5139 0.181792 10.0853 0 9.6384 0L5.9618 0C5.51488 0 5.08627 0.181792 4.77025 0.505384C4.45423 0.828977 4.27669 1.26786 4.27669 1.72549V2.5098H1.05967C0.937785 2.5098 0.820891 2.55938 0.734704 2.64764C0.648517 2.73589 0.600098 2.85558 0.600098 2.98039C0.600098 3.1052 0.648517 3.2249 0.734704 3.31315C0.820891 3.4014 0.937785 3.45098 1.05967 3.45098H1.82563V14.902C1.82563 15.1932 1.93861 15.4725 2.13971 15.6784C2.34081 15.8843 2.61357 16 2.89797 16H12.7022C12.9866 16 13.2594 15.8843 13.4605 15.6784C13.6616 15.4725 13.7746 15.1932 13.7746 14.902V3.45098H14.5405C14.6624 3.45098 14.7793 3.4014 14.8655 3.31315C14.9517 3.2249 15.0001 3.1052 15.0001 2.98039C15.0001 2.85558 14.9517 2.73589 14.8655 2.64764C14.7793 2.55938 14.6624 2.5098 14.5405 2.5098ZM5.19584 1.72549C5.19584 1.51748 5.27654 1.31798 5.42019 1.1709C5.56383 1.02381 5.75866 0.941177 5.9618 0.941177H9.6384C9.84154 0.941177 10.0364 1.02381 10.18 1.1709C10.3237 1.31798 10.4044 1.51748 10.4044 1.72549V2.5098H5.19584V1.72549ZM12.8554 14.902C12.8554 14.9436 12.8393 14.9835 12.8105 15.0129C12.7818 15.0423 12.7429 15.0588 12.7022 15.0588H2.89797C2.85734 15.0588 2.81838 15.0423 2.78965 15.0129C2.76092 14.9835 2.74478 14.9436 2.74478 14.902V3.45098H12.8554V14.902ZM6.42137 6.7451V11.7647C6.42137 11.8895 6.37295 12.0092 6.28677 12.0975C6.20058 12.1857 6.08369 12.2353 5.9618 12.2353C5.83991 12.2353 5.72302 12.1857 5.63683 12.0975C5.55064 12.0092 5.50223 11.8895 5.50223 11.7647V6.7451C5.50223 6.62029 5.55064 6.50059 5.63683 6.41234C5.72302 6.32409 5.83991 6.27451 5.9618 6.27451C6.08369 6.27451 6.20058 6.32409 6.28677 6.41234C6.37295 6.50059 6.42137 6.62029 6.42137 6.7451ZM10.098 6.7451V11.7647C10.098 11.8895 10.0496 12.0092 9.96336 12.0975C9.87718 12.1857 9.76028 12.2353 9.6384 12.2353C9.51651 12.2353 9.39961 12.1857 9.31343 12.0975C9.22724 12.0092 9.17882 11.8895 9.17882 11.7647V6.7451C9.17882 6.62029 9.22724 6.50059 9.31343 6.41234C9.39961 6.32409 9.51651 6.27451 9.6384 6.27451C9.76028 6.27451 9.87718 6.32409 9.96336 6.41234C10.0496 6.50059 10.098 6.62029 10.098 6.7451Z" fill="#212228"/>
</svg>
